<svg width="2754" height="2733" viewBox="0 0 2754 2733" fill="none" xmlns="http://www.w3.org/2000/svg">
<path d="M2712.65 1155.05C2644.73 710.464 2366.24 164.244 1816.06 107.084C1816.06 107.084 1398.34 56.2743 986.55 133.284C742.16 178.984 527.86 315.034 392.26 510.574C256.66 706.114 211.36 944.544 266.34 1171.86C302.04 1319.5 326.17 1472.31 319.55 1624.02C308.03 1888.06 314.66 2134.53 570.9 2291.99C799.7 2432.59 1087.64 2556.6 1362.35 2578.31C1549.04 2593.07 1758.4 2569.18 1938.33 2520.58C2855.29 2272.89 2780.57 1599.64 2712.65 1155.05Z" fill="#F4F7FA"/>
<path d="M1459.04 2104.73C1381.14 2126.3 1320.48 2036.53 1369.57 1972.31C1384.81 1952.37 1399.28 1930.88 1412.6 1907.71C1511.55 1735.68 1460.41 1622.74 1549.52 1311.32C1605.87 1114.41 1647.17 977.556 1766.16 929.276C1859.41 891.436 1989.19 912.516 2052.34 986.056C2104.85 1047.2 2117.44 1151.76 2111.29 1222.5C2106.28 1280.16 2088.56 1318.4 2112.95 1355.72C2137.87 1393.86 2177.36 1386.05 2202.15 1415.93C2252.42 1476.52 2178.58 1615.42 2166.64 1637.87C2033.89 1887.58 1742.4 2004.07 1614.63 2053.35C1571.58 2069.95 1519.52 2087.99 1459.04 2104.73Z" fill="#407BFF"/>
<g opacity="0.5">
<path opacity="0.5" d="M1056.15 2191.69L1055.4 2184.96C1180.28 2170.98 1291.41 2144.61 1385.71 2106.57C1524.69 2050.51 1622.81 1970.45 1677.36 1868.62C1720.09 1788.84 1735.39 1698.7 1756.56 1573.92C1773.46 1474.31 1776.45 1402.18 1779.09 1338.54C1782.54 1255.3 1785.27 1189.56 1817.8 1101.48C1850.8 1012.11 1904.52 928.646 1977.47 853.406L1982.33 858.116C1910.04 932.676 1856.82 1015.34 1824.15 1103.82C1792 1190.9 1789.29 1256.18 1785.86 1338.82C1783.21 1402.66 1780.21 1475.02 1763.23 1575.05C1742.76 1695.73 1726.58 1791.06 1683.33 1871.81C1628.01 1975.08 1528.73 2056.17 1388.24 2112.85C1293.37 2151.12 1181.64 2177.65 1056.15 2191.69Z" fill="white"/>
<path opacity="0.5" d="M1771.64 1505.17L1768.63 1502.82C1768.05 1502.37 1710.44 1456.85 1662.67 1373.3C1618.59 1296.19 1574.01 1169.93 1611.98 1006.31L1618.57 1007.84C1581.1 1169.33 1625.06 1293.89 1668.55 1369.94C1709.49 1441.55 1757.58 1484.69 1769.84 1495.05C1868.53 1332.48 1991.64 1246.24 2077.82 1202.46C2171.93 1154.65 2243.7 1145.73 2244.42 1145.64L2245.22 1152.36C2244.52 1152.44 2173.7 1161.29 2080.6 1208.64C1994.71 1252.32 1871.74 1338.65 1773.62 1501.89L1771.64 1505.17Z" fill="white"/>
<path opacity="0.5" d="M1717.82 1772.85L1716.98 1770.54C1716.58 1769.44 1676.46 1659.49 1614.67 1557.16C1553.27 1455.48 1368.03 1377.97 1366.17 1377.2L1368.76 1370.94C1370.64 1371.72 1557.92 1450.07 1620.47 1553.65C1677.62 1648.3 1716.33 1749.39 1722.49 1765.9C1940.24 1755.51 2277.02 1338.67 2280.41 1334.45L2285.69 1338.68C2284.84 1339.75 2198.97 1446.42 2087.09 1552.61C1936.51 1695.55 1813.1 1769.62 1720.28 1772.76L1717.82 1772.85Z" fill="white"/>
<path opacity="0.5" d="M1555.61 2104.17C1480.16 2104.17 1431.94 2097.88 1431.25 2097.78L1424.56 2096.88L1429.28 2092.06C1503.87 2015.74 1520.53 1919.74 1478.79 1806.71C1447.55 1722.09 1393.53 1659.34 1392.99 1658.71L1398.1 1654.27C1398.65 1654.9 1453.47 1718.6 1485.14 1804.36C1526.36 1916.01 1510.34 2015.26 1438.84 2091.85C1463.34 2094.5 1552.79 2102.45 1669.75 2092.62C1796.28 2081.97 1981.8 2047.71 2147.04 1944.96L2468.12 1745.29L2471.7 1751.04L2150.62 1950.71C1984.19 2054.21 1797.47 2088.69 1670.15 2099.38C1627.8 2102.94 1589.03 2104.17 1555.61 2104.17Z" fill="white"/>
</g>
<path d="M1300.86 2112.66C1409.03 2176.02 1555.87 2241.31 1723.06 2257.81C1765.73 2262.02 2029.3 2288.03 2059.52 2178.58C2070.17 2140.03 2042.87 2117.23 2056.2 2065.43C2072 2004.06 2120.44 1996.79 2181.47 1944.15C2217.89 1912.74 2324.46 1820.81 2292.26 1717.31C2273.01 1655.46 2205.08 1592.27 2137.44 1571.81C2038.22 1541.79 1959.07 1609.57 1827.13 1726.57C1710.17 1830.29 1703 1868.17 1617.47 1941.38C1553.99 1995.71 1454.39 2063.48 1300.86 2112.66Z" fill="url(#paint0_linear)"/>
<g opacity="0.5">
<path opacity="0.5" d="M1356.46 2114.11C1288.83 2114.11 1222.55 2104.6 1157.84 2085.55C1032.39 2048.6 917.4 1978.7 816.06 1877.77L820.84 1872.97C921.37 1973.09 1035.4 2042.43 1159.76 2079.05C1325.4 2127.83 1501.77 2113.46 1683.99 2036.34C1873.83 1955.99 2022.44 1827.69 2113.68 1734.2C2176.78 1669.55 2221.46 1583.42 2246.49 1478.22L2253.07 1479.79C2227.76 1586.2 2182.49 1673.39 2118.52 1738.93C2026.84 1832.87 1877.5 1961.8 1686.62 2042.58C1574.02 2090.23 1463.57 2114.11 1356.46 2114.11Z" fill="white"/>
<path opacity="0.5" d="M1913.83 1911.74L1913.35 1908.74C1913 1906.53 1879.87 1685.76 2020.1 1544.27L2024.91 1549.04C1895.99 1679.11 1916.2 1877.85 1919.62 1904.67C2235.27 1887.49 2331.41 1715.47 2353.41 1663.02C2354.03 1661.55 2354.43 1660.64 2354.62 1660.33L2360.45 1663.77L2357.53 1662.05L2360.48 1663.7C2360.33 1664 2360.06 1664.65 2359.65 1665.63C2337.2 1719.18 2238.91 1895.16 1916.86 1911.59L1913.83 1911.74Z" fill="white"/>
<path opacity="0.5" d="M2000.94 2166.08C2000.56 2166.08 2000.2 2166.08 1999.82 2166.08C1928.85 2165.86 1816.86 2143.95 1686.38 2040.77L1684.96 2039.65L1685.11 2037.85C1685.25 2036.16 1700.06 1866.93 1818.26 1693.46L1937.33 1518.72L1942.92 1522.53L1823.85 1697.27C1713.21 1859.64 1693.94 2018.1 1692.03 2036.61C1763.27 2092.66 1874.06 2158.94 1999.85 2159.32C2000.21 2159.32 2000.57 2159.32 2000.92 2159.32C2075.75 2159.32 2120.8 2135.61 2121.24 2135.37L2124.44 2141.33C2122.55 2142.33 2077.42 2166.08 2000.94 2166.08Z" fill="white"/>
</g>
<path d="M2124.04 700.686C2135.52 706.516 2149.93 701.166 2156.24 688.736C2162.55 676.306 2158.36 661.516 2146.88 655.686C2146.29 655.386 2145.68 655.126 2145.07 654.886C2147.2 648.006 2148.81 641.076 2149.89 634.146C2150.55 634.146 2151.21 634.136 2151.88 634.076C2164.97 632.906 2175.37 620.876 2175.09 607.206C2174.82 593.526 2163.98 583.386 2150.89 584.556C2150.21 584.616 2149.53 584.726 2148.87 584.846C2147.5 578.066 2145.63 571.446 2143.26 565.046C2143.86 564.696 2144.46 564.326 2145.05 563.916C2156.25 556.066 2159.83 540.576 2153.05 529.316C2146.27 518.056 2131.69 515.296 2120.48 523.136C2119.91 523.536 2119.37 523.976 2118.83 524.416C2114.41 519.526 2109.55 514.996 2104.3 510.856C2104.67 510.246 2105.03 509.636 2105.36 508.996C2111.67 496.566 2119.91 482.996 2108.35 477.346C2081.59 464.286 2070.11 475.466 2063.8 487.896C2063.47 488.536 2063.19 489.196 2062.92 489.846C2056.48 488.046 2049.96 486.806 2043.4 486.116C2043.44 485.426 2043.47 484.736 2043.46 484.036C2043.19 470.366 2047.24 462.956 2034.1 462.706C2005.44 462.146 1995.77 474.586 1996.04 488.266C1996.05 488.976 1996.11 489.676 1996.19 490.376C1989.62 492.246 1983.17 494.646 1976.89 497.536C1976.59 496.926 1976.28 496.316 1975.93 495.726C1969.15 484.466 1954.57 481.706 1943.36 489.546C1932.16 497.396 1928.58 512.886 1935.36 524.146C1935.71 524.726 1936.09 525.266 1936.47 525.796C1931.51 530.756 1926.86 536.146 1922.57 541.926C1922.01 541.576 1921.45 541.236 1920.86 540.936C1909.38 535.106 1894.97 540.456 1888.66 552.886C1882.35 565.316 1886.54 580.106 1898.02 585.936C1898.61 586.236 1899.22 586.496 1899.83 586.736C1897.7 593.616 1896.09 600.546 1895.01 607.476C1894.35 607.476 1893.69 607.486 1893.02 607.546C1879.93 608.716 1869.53 620.746 1869.81 634.416C1870.09 648.086 1880.92 658.226 1894.01 657.066C1894.69 657.006 1895.37 656.896 1896.03 656.776C1897.4 663.556 1899.27 670.176 1901.64 676.576C1901.04 676.926 1900.44 677.296 1899.85 677.706C1888.65 685.556 1885.07 701.046 1891.85 712.306C1898.63 723.566 1921.09 728.796 1932.3 720.946C1932.87 720.546 1925.54 717.646 1926.07 717.206C1930.49 722.096 1935.35 726.626 1940.6 730.766C1940.23 731.376 1939.87 731.986 1939.54 732.626C1933.23 745.056 1937.42 759.846 1948.9 765.676C1960.38 771.506 1974.79 766.156 1981.1 753.726C1981.43 753.086 1981.71 752.426 1981.98 751.776C1988.42 753.576 1994.94 754.816 2001.5 755.506C2001.46 756.196 2001.43 756.886 2001.44 757.586C2001.71 771.256 2012.55 781.396 2025.64 780.236C2038.73 779.076 2049.13 767.036 2048.85 753.366C2048.84 752.656 2048.78 751.956 2048.71 751.256C2055.28 749.386 2061.73 746.986 2068.01 744.096C2068.31 744.706 2068.62 745.316 2068.97 745.896C2075.75 757.156 2090.33 759.916 2101.54 752.076C2112.74 744.226 2116.32 728.736 2109.54 717.476C2109.19 716.896 2108.81 716.356 2108.43 715.826C2113.39 710.866 2118.04 705.476 2122.33 699.696C2122.88 700.036 2123.45 700.376 2124.04 700.686ZM1980.98 702.496C1939.31 681.336 1924.1 627.616 1947.01 582.496C1969.92 537.376 2022.27 517.956 2063.93 539.106C2105.6 560.266 2120.81 613.986 2097.9 659.106C2074.99 704.226 2022.65 723.656 1980.98 702.496Z" fill="#407BFF"/>
<path d="M2151.89 634.076C2164.98 632.906 2175.38 620.876 2175.1 607.206C2174.83 593.536 2163.99 583.385 2150.9 584.555C2150.22 584.615 2149.54 584.726 2148.88 584.846C2147.51 578.066 2145.64 571.446 2143.27 565.046C2143.87 564.696 2144.47 564.326 2145.06 563.916C2156.26 556.066 2170.12 537.106 2162.22 526.596C2147.22 506.656 2131.7 515.286 2120.49 523.136C2119.92 523.536 2119.38 523.976 2118.84 524.416C2114.41 519.526 2109.56 514.996 2104.31 510.856C2104.68 510.246 2105.04 509.636 2105.37 508.996C2108.8 502.236 2109.11 494.776 2106.84 488.436C2096.02 507.476 2085.35 526.606 2074.86 545.826C2108.1 570.186 2118.68 618.186 2097.91 659.116C2080.3 693.796 2045.3 713.266 2011.13 710.826C2009.61 714.776 2008.11 718.756 2006.48 722.666C2002.05 733.296 1997.02 743.696 1991.98 754.096C1995.15 754.696 1998.33 755.166 2001.52 755.496C2001.48 756.186 2001.45 756.876 2001.46 757.576C2001.73 771.246 2010.04 782.866 2033.77 781.606C2046.9 780.906 2049.15 767.016 2048.88 753.346C2048.87 752.636 2048.81 751.936 2048.74 751.236C2055.31 749.366 2061.76 746.966 2068.04 744.076C2068.34 744.686 2068.65 745.296 2069 745.876C2075.78 757.136 2099.32 761.916 2110.52 754.076C2121.72 746.226 2116.35 728.716 2109.57 717.456C2109.22 716.876 2108.84 716.335 2108.46 715.805C2113.42 710.845 2118.07 705.455 2122.36 699.675C2122.92 700.025 2123.48 700.366 2124.07 700.666C2135.55 706.496 2149.96 701.146 2156.27 688.716C2162.58 676.286 2158.39 661.496 2146.91 655.666C2146.32 655.366 2145.71 655.106 2145.1 654.866C2147.23 647.986 2148.84 641.056 2149.92 634.126C2150.56 634.146 2151.22 634.136 2151.89 634.076Z" fill="#0448AA"/>
<path d="M2136.39 702.086C2147.87 707.916 2162.28 702.566 2168.59 690.136C2174.9 677.706 2170.71 662.916 2159.23 657.086C2158.64 656.786 2158.03 656.526 2157.42 656.286C2159.55 649.406 2161.16 642.476 2162.24 635.546C2162.9 635.546 2163.56 635.536 2164.23 635.476C2177.32 634.306 2187.72 622.276 2187.44 608.606C2187.17 594.926 2176.33 584.786 2163.24 585.956C2162.56 586.016 2161.88 586.126 2161.21 586.246C2159.84 579.466 2157.97 572.846 2155.6 566.446C2156.2 566.096 2156.8 565.726 2157.39 565.316C2168.59 557.466 2172.17 541.976 2165.39 530.716C2158.61 519.456 2144.03 516.696 2132.82 524.536C2132.25 524.936 2131.71 525.376 2131.17 525.816C2126.75 520.926 2121.89 516.396 2116.64 512.256C2117.01 511.646 2117.37 511.036 2117.7 510.396C2124.01 497.966 2119.82 483.176 2108.34 477.346C2096.86 471.516 2082.45 476.866 2076.14 489.296C2075.81 489.936 2075.53 490.596 2075.26 491.246C2068.82 489.446 2062.3 488.206 2055.74 487.516C2055.78 486.826 2055.81 486.136 2055.8 485.436C2055.53 471.766 2044.69 461.626 2031.6 462.786C2018.51 463.956 2008.11 475.986 2008.39 489.656C2008.4 490.366 2008.46 491.066 2008.53 491.766C2001.96 493.636 1995.51 496.036 1989.23 498.926C1988.93 498.316 1988.62 497.706 1988.27 497.116C1981.49 485.856 1966.9 483.096 1955.7 490.936C1944.5 498.786 1940.92 514.276 1947.7 525.536C1948.05 526.116 1948.43 526.656 1948.81 527.186C1943.85 532.146 1939.2 537.536 1934.91 543.316C1934.36 542.966 1933.79 542.626 1933.2 542.326C1921.72 536.496 1907.31 541.846 1901 554.276C1894.69 566.706 1898.88 581.496 1910.36 587.326C1910.95 587.626 1911.56 587.886 1912.17 588.126C1910.04 595.006 1908.43 601.936 1907.35 608.866C1906.69 608.866 1906.03 608.876 1905.36 608.936C1892.27 610.106 1881.87 622.136 1882.15 635.806C1882.42 649.486 1893.26 659.616 1906.35 658.456C1907.03 658.396 1907.71 658.286 1908.37 658.166C1909.74 664.946 1911.61 671.566 1913.98 677.966C1913.38 678.316 1912.78 678.686 1912.19 679.096C1900.99 686.946 1897.41 702.436 1904.19 713.696C1910.97 724.956 1925.56 727.716 1936.76 719.876C1937.33 719.476 1937.87 719.036 1938.41 718.596C1942.83 723.486 1947.69 728.016 1952.94 732.156C1952.57 732.766 1952.21 733.376 1951.88 734.016C1945.57 746.446 1949.76 761.236 1961.24 767.066C1972.72 772.896 1987.13 767.546 1993.44 755.116C1993.77 754.476 1994.05 753.816 1994.32 753.166C2000.76 754.966 2007.28 756.206 2013.84 756.896C2013.8 757.586 2013.77 758.276 2013.78 758.976C2014.05 772.646 2024.89 782.786 2037.98 781.626C2051.07 780.456 2061.47 768.426 2061.19 754.756C2061.18 754.046 2061.12 753.346 2061.05 752.646C2067.62 750.776 2074.07 748.376 2080.35 745.486C2080.65 746.096 2080.96 746.706 2081.31 747.286C2088.09 758.546 2102.67 761.316 2113.88 753.466C2125.08 745.616 2128.66 730.126 2121.88 718.866C2121.53 718.286 2121.15 717.746 2120.76 717.216C2125.72 712.256 2130.37 706.866 2134.66 701.086C2135.23 701.446 2135.79 701.786 2136.39 702.086ZM1993.32 703.896C1951.65 682.736 1936.44 629.016 1959.35 583.896C1982.26 538.776 2034.61 519.356 2076.27 540.506C2117.94 561.666 2133.15 615.386 2110.24 660.506C2087.34 705.636 2034.99 725.056 1993.32 703.896Z" fill="#407BFF"/>
<path d="M1817.04 466.205C1839.52 477.615 1867.76 467.135 1880.12 442.795C1892.48 418.455 1884.27 389.465 1861.79 378.055C1860.63 377.465 1859.44 376.965 1858.24 376.495C1862.42 363.025 1865.57 349.455 1867.68 335.875C1868.97 335.875 1870.26 335.845 1871.58 335.735C1897.23 333.445 1917.58 309.885 1917.05 283.095C1916.51 256.305 1895.28 236.445 1869.64 238.725C1868.3 238.845 1866.98 239.055 1865.67 239.285C1862.99 226.005 1859.32 213.045 1854.69 200.495C1855.87 199.805 1857.04 199.095 1858.19 198.285C1880.13 182.915 1887.15 152.565 1873.86 130.515C1860.57 108.455 1832.01 103.045 1810.07 118.415C1808.95 119.205 1807.89 120.055 1806.84 120.915C1798.17 111.335 1788.67 102.455 1778.38 94.3552C1779.1 93.1652 1779.81 91.9652 1780.45 90.7052C1792.81 66.3652 1808.96 39.7753 1786.3 28.7153C1733.89 3.12525 1711.4 25.0353 1699.04 49.3753C1698.4 50.6353 1697.85 51.9152 1697.32 53.1952C1684.71 49.6752 1671.93 47.2352 1659.08 45.8952C1659.16 44.5452 1659.22 43.1852 1659.2 41.8152C1658.66 15.0252 1666.61 0.535228 1640.87 0.0352285C1584.73 -1.05477 1565.79 23.3152 1566.32 50.0952C1566.35 51.4952 1566.46 52.8652 1566.6 54.2252C1553.73 57.8952 1541.1 62.5853 1528.8 68.2553C1528.22 67.0653 1527.61 65.8752 1526.91 64.7152C1513.62 42.6552 1485.06 37.2452 1463.11 52.6152C1441.17 67.9852 1434.15 98.3353 1447.44 120.385C1448.12 121.515 1448.87 122.575 1449.62 123.615C1439.9 133.335 1430.8 143.885 1422.39 155.205C1421.3 154.525 1420.2 153.855 1419.03 153.265C1396.55 141.855 1368.31 152.335 1355.95 176.675C1343.59 201.015 1351.8 230.005 1374.28 241.415C1375.44 242.005 1376.63 242.505 1377.83 242.975C1373.65 256.445 1370.5 270.015 1368.39 283.595C1367.1 283.595 1365.81 283.625 1364.5 283.735C1338.85 286.025 1318.49 309.595 1319.03 336.375C1319.57 363.165 1340.8 383.025 1366.44 380.735C1367.78 380.615 1369.1 380.405 1370.41 380.175C1373.09 393.455 1376.76 406.415 1381.39 418.965C1380.21 419.655 1379.04 420.365 1377.89 421.175C1355.95 436.545 1348.93 466.895 1362.22 488.945C1375.51 511.005 1419.51 521.245 1441.45 505.875C1442.57 505.085 1428.2 499.405 1429.24 498.545C1437.91 508.125 1447.41 517.005 1457.7 525.105C1456.98 526.295 1456.27 527.495 1455.63 528.755C1443.27 553.095 1451.48 582.085 1473.96 593.495C1496.44 604.905 1524.68 594.425 1537.04 570.085C1537.68 568.825 1538.23 567.545 1538.76 566.265C1551.37 569.785 1564.15 572.225 1577 573.565C1576.92 574.915 1576.86 576.275 1576.88 577.645C1577.42 604.435 1598.64 624.295 1624.29 622.005C1649.94 619.715 1670.3 596.145 1669.76 569.365C1669.73 567.965 1669.61 566.595 1669.48 565.235C1682.35 561.565 1694.98 556.875 1707.28 551.205C1707.86 552.395 1708.47 553.585 1709.17 554.735C1722.46 576.795 1751.02 582.205 1772.97 566.835C1794.91 551.465 1801.93 521.115 1788.64 499.065C1787.96 497.935 1787.21 496.875 1786.46 495.835C1796.18 486.115 1805.28 475.565 1813.69 464.245C1814.77 464.945 1815.88 465.615 1817.04 466.205ZM1536.79 469.755C1455.17 428.315 1425.38 323.075 1470.25 234.695C1515.12 146.315 1617.67 108.265 1699.29 149.705C1780.91 191.145 1810.7 296.385 1765.83 384.765C1720.96 473.145 1618.42 511.205 1536.79 469.755Z" fill="#0448AA"/>
<path d="M1871.58 335.726C1897.23 333.436 1917.58 309.866 1917.05 283.086C1916.51 256.296 1895.28 236.436 1869.64 238.726C1868.3 238.846 1866.98 239.056 1865.67 239.286C1862.99 226.006 1859.32 213.046 1854.69 200.496C1855.87 199.806 1857.04 199.096 1858.19 198.286C1880.13 182.916 1907.28 145.766 1891.8 125.186C1862.42 86.1355 1832.01 103.036 1810.06 118.416C1808.94 119.206 1807.88 120.056 1806.83 120.916C1798.16 111.336 1788.66 102.456 1778.37 94.3555C1779.09 93.1655 1779.8 91.9655 1780.44 90.7055C1787.17 77.4555 1787.76 62.8555 1783.32 50.4355C1762.12 87.7355 1741.22 125.206 1720.68 162.866C1785.8 210.586 1806.53 304.616 1765.83 384.776C1731.34 452.706 1662.78 490.856 1595.83 486.076C1592.84 493.816 1589.91 501.606 1586.71 509.276C1578.03 530.086 1568.17 550.476 1558.3 570.836C1564.51 572.006 1570.74 572.926 1577 573.586C1576.92 574.936 1576.86 576.296 1576.88 577.666C1577.42 604.456 1593.68 627.216 1640.16 624.746C1665.87 623.386 1670.29 596.176 1669.76 569.386C1669.73 567.986 1669.62 566.616 1669.48 565.256C1682.35 561.586 1694.98 556.896 1707.28 551.226C1707.86 552.426 1708.47 553.606 1709.17 554.756C1722.46 576.816 1768.56 586.185 1790.51 570.805C1812.46 555.425 1801.93 521.136 1788.64 499.076C1787.96 497.946 1787.21 496.886 1786.46 495.846C1796.18 486.126 1805.28 475.576 1813.69 464.256C1814.78 464.936 1815.88 465.606 1817.04 466.196C1839.52 477.616 1867.76 467.126 1880.12 442.786C1892.48 418.446 1884.27 389.456 1861.79 378.046C1860.63 377.456 1859.44 376.956 1858.24 376.486C1862.42 363.016 1865.57 349.446 1867.68 335.866C1868.98 335.866 1870.27 335.836 1871.58 335.726Z" fill="#0448AA"/>
<path d="M1841.22 468.955C1863.7 480.365 1891.94 469.885 1904.3 445.545C1916.66 421.205 1908.45 392.215 1885.97 380.805C1884.81 380.215 1883.62 379.715 1882.42 379.245C1886.6 365.775 1889.75 352.205 1891.86 338.625C1893.15 338.625 1894.44 338.595 1895.76 338.485C1921.41 336.195 1941.76 312.635 1941.23 285.845C1940.69 259.055 1919.47 239.195 1893.82 241.475C1892.48 241.595 1891.16 241.805 1889.85 242.035C1887.17 228.755 1883.5 215.795 1878.87 203.245C1880.05 202.555 1881.22 201.845 1882.37 201.035C1904.31 185.665 1911.33 155.315 1898.04 133.265C1884.75 111.205 1856.19 105.795 1834.25 121.165C1833.13 121.955 1832.07 122.805 1831.02 123.665C1822.35 114.085 1812.85 105.205 1802.56 97.1051C1803.28 95.9151 1803.99 94.7151 1804.63 93.4551C1816.99 69.1151 1808.78 40.1251 1786.3 28.7151C1763.82 17.3051 1735.58 27.7851 1723.22 52.1251C1722.58 53.3851 1722.03 54.6651 1721.5 55.9451C1708.89 52.4251 1696.11 49.9851 1683.26 48.6451C1683.34 47.2951 1683.4 45.9351 1683.38 44.5651C1682.84 17.7751 1661.61 -2.08488 1635.97 0.205117C1610.32 2.49512 1589.96 26.0651 1590.5 52.8451C1590.53 54.2451 1590.65 55.6151 1590.78 56.9751C1577.91 60.6451 1565.28 65.3351 1552.98 71.0051C1552.4 69.8151 1551.79 68.6251 1551.1 67.4651C1537.81 45.4051 1509.25 39.9951 1487.3 55.3651C1465.36 70.7351 1458.34 101.085 1471.63 123.135C1472.31 124.265 1473.06 125.325 1473.81 126.365C1464.09 136.085 1454.99 146.635 1446.58 157.955C1445.49 157.275 1444.39 156.605 1443.22 156.015C1420.74 144.605 1392.5 155.085 1380.14 179.425C1367.78 203.765 1375.99 232.755 1398.47 244.165C1399.63 244.755 1400.82 245.255 1402.02 245.725C1397.84 259.195 1394.69 272.765 1392.58 286.345C1391.29 286.345 1390 286.375 1388.68 286.485C1363.03 288.775 1342.67 312.345 1343.21 339.125C1343.75 365.915 1364.98 385.775 1390.62 383.485C1391.96 383.365 1393.28 383.155 1394.59 382.925C1397.27 396.205 1400.94 409.165 1405.57 421.715C1404.39 422.405 1403.22 423.115 1402.07 423.925C1380.13 439.295 1373.11 469.645 1386.4 491.695C1399.69 513.755 1428.25 519.165 1450.19 503.795C1451.31 503.005 1452.37 502.155 1453.42 501.295C1462.09 510.875 1471.59 519.755 1481.88 527.855C1481.16 529.045 1480.45 530.245 1479.81 531.505C1467.45 555.845 1475.66 584.835 1498.14 596.245C1520.62 607.655 1548.86 597.175 1561.22 572.835C1561.86 571.575 1562.41 570.295 1562.94 569.015C1575.55 572.535 1588.33 574.975 1601.18 576.315C1601.1 577.665 1601.04 579.025 1601.06 580.395C1601.6 607.185 1622.82 627.045 1648.47 624.755C1674.12 622.465 1694.48 598.895 1693.94 572.115C1693.91 570.715 1693.79 569.345 1693.66 567.985C1706.53 564.315 1719.16 559.625 1731.46 553.955C1732.04 555.145 1732.65 556.335 1733.35 557.485C1746.64 579.545 1775.2 584.955 1797.14 569.585C1819.08 554.215 1826.1 523.865 1812.81 501.815C1812.13 500.685 1811.38 499.625 1810.63 498.585C1820.35 488.865 1829.45 478.315 1837.86 466.995C1838.95 467.695 1840.05 468.365 1841.22 468.955ZM1560.97 472.505C1479.35 431.065 1449.56 325.825 1494.43 237.445C1539.3 149.065 1641.85 111.015 1723.47 152.455C1805.09 193.895 1834.88 299.135 1790.01 387.515C1745.14 475.895 1642.6 513.945 1560.97 472.505Z" fill="#0448AA"/>
<path d="M2728.98 2412.98L65.2202 2389.95V2458.08C65.2202 2476.57 76.8402 2492.29 92.5702 2495.1L845.8 2629.26C854.74 2630.85 863.8 2631.27 872.82 2630.52L2700.03 2477.56C2716.34 2476.19 2728.98 2460.42 2728.98 2441.42V2412.98V2412.98Z" fill="#BFC8D6"/>
<path d="M1794.04 1109.28V2248.98C1794.04 2263.36 1788.8 2276.77 1780.43 2286.73C1772.3 2296.47 1761.1 2302.89 1748.75 2303.82L524.75 2394.1L68.39 2427.87H68.32L65.23 2427.94L55.31 2428.54C25.01 2430.77 0 2406.97 0 2375.51V1114.73C0 1083.26 25.39 1056.94 55.69 1056.94H1748.71C1773.68 1056.95 1794.04 1080.83 1794.04 1109.28Z" fill="#BFC8D6"/>
<path d="M1821.12 1109.28V2248.98C1821.12 2270.94 1808.93 2290.56 1791.94 2299.19C1791.69 2299.32 1791.38 2299.44 1791.13 2299.57C1789.51 2300.36 1787.84 2301.08 1786.14 2301.66C1785.76 2301.8 1785.37 2301.93 1784.99 2302.07C1784.68 2302.14 1784.36 2302.24 1784.09 2302.31C1782.85 2302.69 1781.61 2302.96 1780.34 2303.2C1778.83 2303.51 1777.29 2303.71 1775.71 2303.82L1767.13 2304.38L548.91 2394.02H548.84L82.6498 2428.39C78.1598 2428.73 73.7598 2428.69 69.5798 2427.91C69.1698 2427.84 68.7898 2427.87 68.3798 2427.87H68.3098C67.2798 2427.87 65.9098 2427.25 64.8798 2426.94C43.1298 2421 27.0698 2400.65 27.0698 2375.5V1114.73C27.0698 1083.26 52.3898 1056.94 82.6898 1056.94H1775.71C1800.69 1056.95 1821.12 1080.83 1821.12 1109.28Z" fill="white"/>
<path d="M1722.97 2223.45L146.08 2331.71C121.43 2333.4 101.39 2313.95 101.39 2288.26V1184.47C101.39 1158.78 121.43 1137.87 146.08 1137.76L1722.97 1130.96C1743.56 1130.87 1760.21 1149.77 1760.21 1173.17V2178.53C1760.21 2201.92 1743.56 2222.04 1722.97 2223.45Z" fill="#D8DEE8"/>
<path d="M988.99 1092.24C988.99 1103.95 980.28 1113.48 969.52 1113.51C958.75 1113.54 950 1104.05 950 1092.31C950 1080.57 958.74 1071.04 969.52 1071.04C980.27 1071.03 988.99 1080.52 988.99 1092.24Z" fill="white"/>
<path opacity="0.48" d="M82.67 2428.43L1767.14 2304.43L1775.71 2303.8C1787.16 2302.96 1797.57 2297.3 1805.53 2288.71C1684.31 2282.08 1609.02 2239.06 1560.46 2194.61C1462.93 2105.35 1479.84 2017.32 1374.67 1958.63C1243.48 1885.43 1140.33 1978.18 1040.78 1886.67C980.43 1831.19 1010.06 1789.81 935.8 1706.9C853.55 1615.07 800 1645.94 717.34 1563.28C612.82 1458.77 665.1 1377.46 575.06 1302.43C465.84 1211.4 348.05 1295.65 244.08 1208.36C199.24 1170.71 174.63 1115.97 161.78 1057.76H82.68C52.38 1057.76 27.75 1083.27 27.75 1114.74V2375.5C27.75 2406.96 52.37 2430.66 82.67 2428.43Z" fill="white"/>
<path d="M1855.48 2296.89L65.2202 2428.07L845.81 2567.1C854.75 2568.69 863.81 2569.11 872.83 2568.36L2728.98 2412.98L1883.95 2297.78C1874.51 2296.49 1864.98 2296.19 1855.48 2296.89Z" fill="url(#paint1_linear)"/>
<path d="M326.45 2429.2L1816.89 2318.36L2278.17 2380.74L800.57 2499.22L326.45 2429.2Z" fill="#D8DEE8"/>
<path opacity="0.3" d="M1685.72 1056.95V2194.98C1685.72 2205.48 1683.62 2215.74 1680.56 2225.45C1676.27 2239.21 1668.91 2251.87 1659.64 2262.75C1641.8 2283.68 1615.95 2297.92 1587.12 2300.12L361.27 2392.63L288.98 2398.09C271.55 2399.43 255.03 2397.03 240.24 2391.61C210.53 2380.8 188.41 2357.84 179.6 2328.54C176.92 2319.79 176.02 2310.49 176.02 2300.75V1056.95H1685.72Z" fill="#BFC8D6"/>
<path d="M1614.6 364.065L316.09 324.055C253.17 322.115 201.85 367.975 201.85 426.505V2276.72C201.85 2335.24 253.16 2378.81 316.09 2374.07L1614.6 2276.1C1669 2272 1712.85 2224.94 1712.85 2170.97V464.805C1712.85 410.845 1668.99 365.745 1614.6 364.065Z" fill="#7AA3FF"/>
<path opacity="0.74" d="M238.48 2285.16V416.425C238.48 382.745 267.99 356.295 304.26 357.355L1624.88 395.745C1656.25 396.655 1681.6 422.665 1681.6 453.835V2183.35C1681.6 2214.52 1656.25 2241.65 1624.88 2243.96L304.26 2341.31C267.98 2343.98 238.48 2318.84 238.48 2285.16Z" fill="white"/>
<path d="M1614.6 364.065L316.09 324.055C253.17 322.115 201.85 367.975 201.85 426.505V502.515L1712.85 534.905V464.815C1712.85 410.845 1669 365.745 1614.6 364.065Z" fill="#0448AA"/>
<path d="M404.7 421.486C404.7 440.436 388.2 455.406 367.8 454.916C347.36 454.426 330.76 438.596 330.76 419.576C330.76 400.556 347.36 385.586 367.8 386.146C388.19 386.716 404.7 402.536 404.7 421.486Z" fill="white"/>
<path d="M533.18 424.815C533.18 443.645 516.9 458.515 496.77 458.025C476.6 457.535 460.23 441.825 460.23 422.925C460.23 404.025 476.61 389.155 496.77 389.715C516.89 390.275 533.18 405.985 533.18 424.815Z" fill="white"/>
<path d="M659.95 428.095C659.95 446.795 643.88 461.575 624.03 461.095C604.13 460.615 587.97 445.005 587.97 426.235C587.97 407.465 604.13 392.695 624.03 393.245C643.88 393.785 659.95 409.395 659.95 428.095Z" fill="white"/>
<path d="M939.72 888.935L405.26 888.085C396.55 888.075 389.48 881.585 389.48 873.595V839.595C389.48 831.605 396.55 825.165 405.26 825.215L939.72 828.215C947.84 828.265 954.41 834.535 954.41 842.245V875.025C954.41 882.715 947.83 888.955 939.72 888.935Z" fill="white"/>
<path d="M425.98 900.904L471.93 1069.41C474.83 1080.06 485.25 1087.44 497.18 1087.3L852.97 1083.3C864.34 1083.17 874.24 1075.76 877 1065.33L920.33 901.274L425.98 900.904ZM557.87 1059.52C557.87 1066.21 552.01 1071.69 544.78 1071.76L532.29 1071.89C525.04 1071.96 519.16 1066.59 519.16 1059.89V929.284C519.16 922.584 525.04 917.144 532.29 917.144H544.78C552.01 917.144 557.87 922.564 557.87 929.244V1059.52ZM627.31 1058.87C627.31 1065.53 621.5 1070.98 614.34 1071.05L601.96 1071.18C594.78 1071.25 588.95 1065.9 588.95 1059.23V929.214C588.95 922.544 594.78 917.134 601.96 917.134H614.34C621.51 917.134 627.31 922.524 627.31 929.184V1058.87ZM696.12 1058.21C696.12 1064.84 690.37 1070.27 683.26 1070.34L670.99 1070.47C663.87 1070.54 658.09 1065.22 658.09 1058.58V929.144C658.09 922.504 663.87 917.114 670.99 917.114H683.26C690.36 917.114 696.12 922.484 696.12 929.104V1058.21ZM764.33 1057.57C764.33 1064.17 758.63 1069.57 751.59 1069.64L739.43 1069.76C732.37 1069.83 726.65 1064.53 726.65 1057.92V929.064C726.65 922.454 732.38 917.084 739.43 917.084H751.59C758.63 917.084 764.33 922.424 764.33 929.024V1057.57ZM831.93 1056.92C831.93 1063.49 826.28 1068.87 819.3 1068.94L807.25 1069.06C800.26 1069.13 794.58 1063.85 794.58 1057.27V928.984C794.58 922.404 800.26 917.064 807.25 917.064H819.3C826.28 917.064 831.93 922.384 831.93 928.954V1056.92Z" fill="white"/>
<path d="M486.02 808.524C477.9 814.984 465.57 814.134 458.48 806.594C451.38 799.054 452.23 787.694 460.37 781.234C468.51 774.784 480.83 775.674 487.91 783.204C494.98 790.734 494.13 802.064 486.02 808.524Z" fill="white"/>
<path d="M657.54 648.405C654.86 645.495 649.33 645.815 645.17 649.105L475.94 783.495C471.69 786.865 470.47 791.975 473.21 794.885C475.95 797.805 481.61 797.425 485.86 794.055L654.88 659.635C659.02 656.345 660.21 651.315 657.54 648.405Z" fill="white"/>
<path d="M863.61 811.055C871.33 817.465 883.03 816.776 889.74 809.536C896.45 802.306 895.64 791.255 887.95 784.845C880.25 778.435 868.55 779.085 861.82 786.325C855.07 793.565 855.88 804.645 863.61 811.055Z" fill="white"/>
<path d="M696.69 649.075C699.35 646.265 704.85 646.775 708.97 650.205L873.19 786.805C877.22 790.155 878.38 795.145 875.78 797.945C873.18 800.745 867.8 800.305 863.76 796.945L699.33 660.375C695.21 656.945 694.02 651.885 696.69 649.075Z" fill="white"/>
<path d="M1562.04 728.265L1010.91 721.225V652.625L1562.04 662.185V728.265Z" fill="white"/>
<path d="M1562.04 843.955L1010.91 841.325V772.725L1562.04 777.875V843.955Z" fill="white"/>
<path d="M1562.04 959.646L1010.91 961.436V892.836L1562.04 893.566V959.646Z" fill="white"/>
<path d="M1562.04 1075.35L1010.91 1081.54V1012.94L1562.04 1009.26V1075.35Z" fill="white"/>
<path d="M1487.08 1660.17C1487.08 1937.7 1263.45 2177.63 986.74 2196.12C709.08 2214.68 483.3 2003.4 483.3 1724.16C483.3 1444.92 709.08 1204.85 986.74 1188.01C1263.45 1171.23 1487.08 1382.64 1487.08 1660.17Z" fill="#407BFF"/>
<path d="M1017.47 1210.77C1138.33 1210.77 1250.7 1256.72 1333.88 1340.16C1417.39 1423.94 1463.39 1537.59 1463.39 1660.17C1463.39 1788.42 1413.66 1912.34 1323.36 2009.12C1233.03 2105.93 1112.92 2163.94 985.17 2172.48C974.43 2173.2 963.57 2173.56 952.9 2173.56C832.12 2173.56 719.81 2127.69 636.65 2044.39C553.05 1960.65 507.01 1846.92 507.01 1724.15C507.01 1457.65 722.87 1227.74 988.19 1211.65C997.9 1211.07 1007.75 1210.77 1017.47 1210.77ZM1017.44 1187.08C1007.29 1187.08 997.04 1187.39 986.73 1188.01C709.07 1204.85 483.29 1444.92 483.29 1724.16C483.29 1991.97 690.94 2197.26 952.87 2197.26C964.05 2197.26 975.35 2196.88 986.72 2196.12C1263.43 2177.62 1487.06 1937.69 1487.06 1660.17C1487.08 1392.98 1279.82 1187.06 1017.44 1187.08Z" fill="white"/>
<path d="M1201.08 1958.47C1186.37 1960.18 1171.58 1955.55 1160.26 1944.13L766.82 1547.53C741.01 1521.51 741.01 1477.43 766.82 1449.45C792.43 1421.69 833.51 1420.61 858.6 1446.65L1241.37 1844C1263.39 1866.86 1263.39 1907.43 1241.37 1934.94C1230.3 1948.78 1215.72 1956.77 1201.08 1958.47Z" fill="white"/>
<path d="M813.04 2003.62C796.39 2005.56 779.65 2000.75 766.83 1988.68C741.02 1964.41 741.02 1920.33 766.83 1890.6L1160.27 1437.44C1182.89 1411.39 1219.2 1410.43 1241.38 1434.96C1263.4 1459.31 1263.4 1499.88 1241.38 1525.9L858.61 1978.28C846.08 1993.09 829.6 2001.69 813.04 2003.62Z" fill="white"/>
<path d="M1914.76 1334.76C1882.07 1299.86 1972.56 1168.75 2021 1111.29C2063.31 1061.1 2106.8 1009.51 2160.21 1016.04C2207.1 1021.77 2252.72 1071.22 2255.46 1118.61C2262.81 1246.11 1961.23 1384.37 1914.76 1334.76Z" fill="url(#paint2_linear)"/>
<path d="M2307.23 2682.07C2313.38 2687.07 2314.51 2699.56 2315.25 2707.73C2315.58 2711.38 2315.75 2713.2 2315.34 2714.49C2312.37 2723.89 2294.14 2724.87 2265.57 2727.79C2220.41 2732.4 2206.97 2735.96 2203.44 2729.24C2200.13 2722.94 2208.14 2712.63 2209.05 2711.49C2213.9 2705.38 2219.86 2703.15 2231.37 2699.36C2252.68 2692.35 2267.07 2688.51 2271.43 2687.34C2298.65 2680.09 2303.19 2678.79 2307.23 2682.07Z" fill="url(#paint3_linear)"/>
<path d="M2280.38 2640.82L2275.86 2692.28C2277.14 2694.76 2292.44 2702.22 2304.59 2695.83L2316.2 2645.25L2280.38 2640.82Z" fill="url(#paint4_linear)"/>
<path d="M1949.09 2675.46C1956.46 2683.6 1958.14 2698.6 1951.73 2705.99C1945.43 2713.25 1935.95 2707.81 1909.07 2708.61C1880.27 2709.47 1872.76 2716.27 1853.19 2710.87C1845.28 2708.68 1831.32 2703.38 1831.59 2697.74C1831.78 2693.77 1838.88 2691.72 1862.63 2683.77C1896.33 2672.48 1896.18 2671.87 1903.34 2670.68C1921.3 2667.7 1939.35 2664.71 1949.09 2675.46Z" fill="url(#paint5_linear)"/>
<path d="M1930.64 2628.5L1916.2 2676.54C1917.29 2679.12 1931.97 2687.71 1944.57 2682.27L1966.02 2635.64L1930.64 2628.5Z" fill="url(#paint6_linear)"/>
<path d="M2058.96 1576.32C2056.89 1737.78 2045.87 1919.31 2019.44 2116.54C1993.31 2311.47 1956.7 2487.6 1916.76 2642.48C1935.19 2647.44 1953.61 2652.4 1972.04 2657.35C2018.79 2613.76 2077.76 2545.14 2106.22 2448.17C2123.88 2387.98 2118 2357.06 2129.2 2283.03C2147.04 2165.16 2183.17 2103.41 2220.51 2008.36C2254.07 1922.95 2293.73 1797.6 2315 1630.05C2229.65 1612.14 2144.31 1594.23 2058.96 1576.32Z" fill="url(#paint7_linear)"/>
<path d="M2225.3 1560.91C2236.58 1766.25 2245.85 1975.42 2252.88 2188.29C2258.16 2348.03 2262.03 2505.74 2264.6 2661.38C2283.42 2663.7 2302.24 2666.03 2321.07 2668.35C2339.26 2634.49 2363.41 2582.72 2379.96 2516.36C2400.06 2435.77 2395.41 2387.91 2404.22 2304.39C2414.11 2210.71 2428.47 2190.3 2453.92 2072.12C2505.57 1832.29 2531.4 1712.37 2473.78 1637.77C2455.08 1613.56 2396.45 1552.81 2225.3 1560.91Z" fill="url(#paint8_linear)"/>
<path d="M2499.62 1044.83C2455.54 1032.43 2390.94 1017.94 2311.82 1013.47C2198.98 1007.09 2142.55 1003.9 2102.57 1030.77C2010.23 1092.84 2081.72 1236.08 2043.92 1591.18C2038.52 1641.89 2037.31 1692.96 2033.4 1743.81C2026.93 1828 2025.45 1832.57 2031.31 1841.1C2068.04 1894.6 2205.09 1813.91 2405.97 1845.8C2518.36 1863.65 2569.34 1904.76 2600.13 1875.11C2636.04 1840.53 2605.24 1747.51 2578.72 1667.43C2548.28 1575.51 2529.48 1574.33 2512.21 1505.11C2494.15 1432.76 2505.07 1395.5 2507.89 1281.41C2509.23 1226.81 2508.94 1145.56 2499.62 1044.83Z" fill="url(#paint9_linear)"/>
<g opacity="0.3">
<path opacity="0.3" d="M2226.46 1711.48C2278.96 1707.37 2313.02 1737.05 2358.34 1713.92C2420.49 1682.2 2440.45 1583.51 2436.49 1513.66C2430.47 1407.53 2369.87 1379.55 2380.32 1310.95C2385.97 1273.85 2412.46 1224.59 2507.56 1174.27C2508.83 1216.62 2508.59 1252.72 2507.88 1281.4C2505.07 1395.5 2494.15 1432.75 2512.2 1505.1C2529.48 1574.32 2548.28 1575.51 2578.71 1667.42C2605.22 1747.5 2636.03 1840.52 2600.12 1875.1C2569.33 1904.76 2518.35 1863.64 2405.96 1845.79C2232.88 1818.31 2107.25 1874.34 2052.28 1856.17C2118.71 1746.42 2178.95 1715.19 2226.46 1711.48Z" fill="url(#paint10_linear)"/>
</g>
<path d="M2428 1052.11C2465.5 1021.3 2540.89 1056.18 2561.05 1065.5C2673.44 1117.49 2774.35 1257.58 2749.35 1405.63C2745.6 1427.83 2728.21 1531.69 2640.27 1582.01C2560.92 1627.41 2453.78 1615.74 2367.93 1551.43C2356.2 1541.02 2344.47 1530.61 2332.73 1520.2C2321.19 1507.72 2309.64 1495.25 2298.1 1482.77C2316.24 1467.68 2347.07 1445.91 2390.37 1431.94C2447.45 1413.52 2489.01 1446.57 2515.49 1421.44C2533.77 1404.1 2533.81 1373.47 2529.3 1354.91C2520.2 1317.5 2487.22 1306.98 2459.7 1280.42C2395.02 1218.03 2383.11 1089 2428 1052.11Z" fill="url(#paint11_linear)"/>
<path d="M1889.14 1535.43L2391.74 1527.92L2258.09 1592.42L1887.86 1568.19L1889.14 1535.43Z" fill="url(#paint12_linear)"/>
<path d="M2409.48 1541.28C2409.48 1550.69 2403.59 1559.09 2394.75 1562.3L2234.15 1625.26L2233.42 1581.61L2391.74 1527.92C2400.62 1525.37 2409.48 1532.04 2409.48 1541.28Z" fill="url(#paint13_linear)"/>
<path d="M2332.09 1511.54C2335.17 1510.85 2317.06 1474.76 2302.84 1478.93C2288.62 1483.1 2219.08 1523.4 2212.76 1539.99C2206.44 1556.58 2206.44 1556.58 2206.44 1556.58C2206.44 1556.58 2236.77 1558.95 2255.59 1552.63C2274.4 1546.31 2307 1517.13 2332.09 1511.54Z" fill="url(#paint14_linear)"/>
<path d="M2220.09 1275.36L2255.52 1597.92C2256.74 1609.05 2241.16 1625.63 2229.98 1625.1L1710.27 1593.19C1701.73 1592.78 1694.62 1586.5 1693.17 1578.07L1627.94 1266.53C1625.99 1255.19 1646.37 1243.48 1657.87 1243.8L2202.49 1259.11C2211.59 1259.39 2219.1 1266.32 2220.09 1275.36Z" fill="url(#paint15_linear)"/>
<path d="M2208.21 1284.77L2243.64 1607.34C2244.86 1618.47 2235.85 1628.06 2224.67 1627.53L1698.39 1602.61C1689.85 1602.21 1682.74 1595.92 1681.29 1587.49L1627.52 1274.53C1625.57 1263.19 1634.49 1252.91 1645.99 1253.23L2190.61 1268.54C2199.71 1268.8 2207.22 1275.72 2208.21 1284.77Z" fill="#407BFF"/>
<path opacity="0.3" d="M1899.18 1527.02C1945.13 1507.54 1928.91 1470.4 1983.18 1424.12C2054.77 1363.07 2127.73 1389.54 2153.28 1342.22C2161.23 1327.48 2165.03 1304.55 2151.18 1267.43L2190.62 1268.54C2199.71 1268.79 2207.23 1275.72 2208.22 1284.76L2243.65 1607.33C2244.87 1618.46 2235.86 1628.05 2224.68 1627.52L1698.4 1602.6C1689.86 1602.2 1682.75 1595.91 1681.3 1587.48L1673.88 1544.29C1689.85 1535.4 1708.93 1527.32 1731.19 1522.81C1808.39 1507.16 1846.27 1549.45 1899.18 1527.02Z" fill="#407BFF"/>
<path d="M1665.23 1557.49C1664.37 1554.89 1666.19 1552.2 1668.92 1552.07C1680.04 1551.5 1705.84 1551.28 1720.08 1560C1738.58 1571.33 1762.5 1592 1742.36 1602.43L1723.55 1612.18C1722.69 1612.63 1721.75 1612.78 1720.8 1612.57C1714.12 1611.1 1685.98 1604.86 1682.91 1603.31C1680.1 1601.9 1669.37 1570.07 1665.23 1557.49Z" fill="url(#paint16_linear)"/>
<path d="M2303.39 890.166C2303.11 923.616 2306.84 950.156 2310.37 968.326C2314.41 989.146 2317.33 994.526 2321.05 998.886C2326.65 1005.46 2335.13 1010.97 2383.07 1022.86C2409.16 1029.33 2412.51 1029.15 2413.09 1031.74C2415.9 1044.37 2344.77 1087.41 2271.27 1077.04C2226.29 1070.69 2185.37 1045.03 2187.88 1031.56C2190.41 1018 2235.34 1025.28 2248.73 1000.74C2258.05 983.666 2247.6 959.436 2235.26 939.376C2247.22 916.966 2291.44 912.566 2303.39 890.166Z" fill="url(#paint17_linear)"/>
<path d="M2219.91 903.396C2209.3 889.296 2208.64 864.676 2220.87 849.116C2231.4 835.726 2247.96 833.816 2257.87 832.666C2286.6 829.346 2322.86 841.346 2335.47 867.786C2342.94 883.456 2326.78 916.026 2324.25 921.876C2321.38 928.496 2316.19 930.766 2311.38 935.776C2304.72 942.716 2294.29 953.756 2277.26 972.216C2275.94 966.766 2273.93 960.026 2270.73 952.716C2269.5 949.906 2264.56 938.916 2257.08 929.806C2242.12 911.546 2229.97 916.756 2219.91 903.396Z" fill="url(#paint18_linear)"/>
<path d="M2301.55 956.697C2301.55 956.697 2282.66 987.687 2245.05 985.237C2211.38 983.047 2206.44 907.527 2227.95 891.507C2235.13 886.157 2249.5 883.937 2261.18 887.217C2268.08 889.147 2270.42 892.017 2281.76 894.957C2292.22 897.667 2295.17 896.517 2298.33 899.167C2302.28 902.487 2305.17 910.637 2298.58 932.717C2305.01 926.217 2312.72 923.717 2318.18 926.297C2319.05 926.707 2321.36 928.277 2322.66 930.667C2327.37 939.287 2319.5 950.307 2301.55 956.697Z" fill="url(#paint19_linear)"/>
<path d="M2299.86 894.655C2298.24 895.865 2303.2 901.925 2303.57 910.505C2304.29 927.155 2287.44 947.135 2270.25 948.825C2260.09 949.825 2257.3 943.705 2240.5 941.925C2230.1 940.825 2221.44 942.145 2216 943.335C2210.72 961.595 2215.69 979.795 2227.89 988.235C2241.03 997.325 2257.81 991.815 2264.82 989.505C2269.51 987.965 2284.55 983.045 2292.41 969.255C2300.6 954.885 2292.56 946.215 2301.96 936.495C2306.7 931.595 2312.92 929.465 2318.99 919.975C2320.64 917.395 2321.73 915.115 2322.41 913.575C2313.71 904.375 2302.21 892.895 2299.86 894.655Z" fill="url(#paint20_linear)"/>
<path d="M2228.21 950.106C2228.21 950.106 2235.48 953.906 2248.05 953.196C2248.66 953.156 2249.34 953.336 2249.41 953.656C2249.7 954.846 2241.64 960.196 2234.21 958.106C2228.94 956.626 2224.83 951.626 2225.54 950.356C2225.85 949.826 2227.04 949.896 2228.21 950.106Z" fill="url(#paint21_linear)"/>
<defs>
<linearGradient id="paint0_linear" x1="1968.19" y1="1494.86" x2="1729.63" y2="2135.21" gradientUnits="userSpaceOnUse">
<stop stop-color="#AA80F9"/>
<stop offset="0.9964" stop-color="#6165D7"/>
</linearGradient>
<linearGradient id="paint1_linear" x1="687.447" y1="2432.62" x2="3351.21" y2="2432.62" gradientUnits="userSpaceOnUse">
<stop offset="0.494" stop-color="#EBEFF2"/>
<stop offset="1" stop-color="white"/>
</linearGradient>
<linearGradient id="paint2_linear" x1="2067.85" y1="1285.75" x2="1743.01" y2="2843.6" gradientUnits="userSpaceOnUse">
<stop stop-color="#FFC444"/>
<stop offset="0.9964" stop-color="#F36F56"/>
</linearGradient>
<linearGradient id="paint3_linear" x1="2203.24" y1="2705.09" x2="2315.71" y2="2708.34" gradientUnits="userSpaceOnUse">
<stop stop-color="#444B8C"/>
<stop offset="0.9964" stop-color="#26264F"/>
</linearGradient>
<linearGradient id="paint4_linear" x1="2275.86" y1="2669.58" x2="2316.2" y2="2669.58" gradientUnits="userSpaceOnUse">
<stop stop-color="#FFC444"/>
<stop offset="0.9964" stop-color="#F36F56"/>
</linearGradient>
<linearGradient id="paint5_linear" x1="1838" y1="2674.11" x2="1953.27" y2="2705.81" gradientUnits="userSpaceOnUse">
<stop stop-color="#444B8C"/>
<stop offset="0.9964" stop-color="#26264F"/>
</linearGradient>
<linearGradient id="paint6_linear" x1="1916.2" y1="2656.26" x2="1966.02" y2="2656.26" gradientUnits="userSpaceOnUse">
<stop stop-color="#FFC444"/>
<stop offset="0.9964" stop-color="#F36F56"/>
</linearGradient>
<linearGradient id="paint7_linear" x1="1877.26" y1="2479.53" x2="2196.12" y2="1760.76" gradientUnits="userSpaceOnUse">
<stop stop-color="#40447E"/>
<stop offset="0.9964" stop-color="#3C3B6B"/>
</linearGradient>
<linearGradient id="paint8_linear" x1="2033.86" y1="2513.58" x2="2438.36" y2="1839.27" gradientUnits="userSpaceOnUse">
<stop stop-color="#40447E"/>
<stop offset="0.9964" stop-color="#3C3B6B"/>
</linearGradient>
<linearGradient id="paint9_linear" x1="2362.79" y1="1347.25" x2="2037.95" y2="2905.1" gradientUnits="userSpaceOnUse">
<stop stop-color="#FFC444"/>
<stop offset="0.9964" stop-color="#F36F56"/>
</linearGradient>
<linearGradient id="paint10_linear" x1="2451.84" y1="2331.79" x2="2309.24" y2="1654.47" gradientUnits="userSpaceOnUse">
<stop stop-color="#FFC444"/>
<stop offset="0.9964" stop-color="#F36F56"/>
</linearGradient>
<linearGradient id="paint11_linear" x1="2573.4" y1="1206.79" x2="2316.45" y2="2439.08" gradientUnits="userSpaceOnUse">
<stop stop-color="#FFC444"/>
<stop offset="0.9964" stop-color="#F36F56"/>
</linearGradient>
<linearGradient id="paint12_linear" x1="2065.78" y1="1743.21" x2="2126.58" y2="1570.94" gradientUnits="userSpaceOnUse">
<stop stop-color="#311944"/>
<stop offset="1" stop-color="#893976"/>
</linearGradient>
<linearGradient id="paint13_linear" x1="2331.38" y1="1493.62" x2="2309.09" y2="1647.65" gradientUnits="userSpaceOnUse">
<stop stop-color="#311944"/>
<stop offset="1" stop-color="#893976"/>
</linearGradient>
<linearGradient id="paint14_linear" x1="2206.44" y1="1517.8" x2="2332.43" y2="1517.8" gradientUnits="userSpaceOnUse">
<stop stop-color="#FFC444"/>
<stop offset="0.9964" stop-color="#F36F56"/>
</linearGradient>
<linearGradient id="paint15_linear" x1="1889.66" y1="1507.11" x2="2008.2" y2="1338.8" gradientUnits="userSpaceOnUse">
<stop stop-color="#444B8C"/>
<stop offset="0.9964" stop-color="#26264F"/>
</linearGradient>
<linearGradient id="paint16_linear" x1="1665.02" y1="1582.25" x2="1750.01" y2="1582.25" gradientUnits="userSpaceOnUse">
<stop stop-color="#FFC444"/>
<stop offset="0.9964" stop-color="#F36F56"/>
</linearGradient>
<linearGradient id="paint17_linear" x1="2308.84" y1="890.49" x2="2287.1" y2="1259.94" gradientUnits="userSpaceOnUse">
<stop stop-color="#FFC444"/>
<stop offset="0.9964" stop-color="#F36F56"/>
</linearGradient>
<linearGradient id="paint18_linear" x1="2345.02" y1="1060.23" x2="2260.72" y2="843.793" gradientUnits="userSpaceOnUse">
<stop stop-color="#311944"/>
<stop offset="1" stop-color="#6B3976"/>
</linearGradient>
<linearGradient id="paint19_linear" x1="2214.98" y1="935.533" x2="2324" y2="935.533" gradientUnits="userSpaceOnUse">
<stop stop-color="#FFC444"/>
<stop offset="0.9964" stop-color="#F36F56"/>
</linearGradient>
<linearGradient id="paint20_linear" x1="2318.98" y1="1070.48" x2="2234.61" y2="853.825" gradientUnits="userSpaceOnUse">
<stop stop-color="#311944"/>
<stop offset="1" stop-color="#6B3976"/>
</linearGradient>
<linearGradient id="paint21_linear" x1="2225.47" y1="954.266" x2="2249.43" y2="954.266" gradientUnits="userSpaceOnUse">
<stop stop-color="#FFC444"/>
<stop offset="0.9964" stop-color="#F36F56"/>
</linearGradient>
</defs>
</svg>
