<?xml version="1.0"?>
<svg xmlns="http://www.w3.org/2000/svg" xmlns:xlink="http://www.w3.org/1999/xlink" xmlns:svgjs="http://svgjs.com/svgjs" version="1.1" width="512" height="512" x="0" y="0" viewBox="0 0 512 512" style="enable-background:new 0 0 512 512" xml:space="preserve" class=""><g><g xmlns="http://www.w3.org/2000/svg"><path d="m256 226h-256v270h256 256v-270z" fill="#ffdf40" data-original="#ffdf40" style="" class=""/><path d="m256 226h256v270h-256z" fill="#ffbe40" data-original="#ffbe40" style="" class=""/><path d="m495.242 199.838-74.242-31.901-30 58.809 30 58.809 74.843-33.671c9.814-4.805 16.157-14.956 16.157-25.884s-6.343-21.079-16.758-26.162z" fill="#ff9f40" data-original="#ff9f40" style="" class=""/><path d="m16.157 200.116c-9.814 4.805-16.157 14.956-16.157 25.884s6.343 21.079 16.157 25.884l74.843 33.671 165-59.226-165-59.227z" fill="#ffbe40" data-original="#ffbe40" style="" class=""/><g><path d="m61.453 344.476h186.858v30.002h-186.858z" fill="#ffbe40" transform="matrix(.753 -.658 .658 .753 -198.318 190.771)" data-original="#ffbe40" style="" class=""/></g><g><path d="m343.179 268.389h30.002v184.034h-30.002z" fill="#ff9f40" transform="matrix(.659 -.753 .753 .659 -148.917 392.639)" data-original="#ff9f40" style="" class=""/></g><path d="m256 16h-165v151.102 118.453l165 75.24 165-75.24v-117.618-151.937z" fill="#615ce6" data-original="#edf3f9" style="" class=""/><path d="m421 167.937v-151.937h-165v344.795l165-75.24z" fill="#615ce6" data-original="#d8e2f0" style="" class=""/><g><circle cx="256" cy="181" fill="#ffffff" r="105" data-original="#8ae65c" style="" class=""/><path d="m361 181c0-57.891-47.109-105-105-105v210c57.891 0 105-47.109 105-105z" fill="#ffffff" data-original="#34cc15" style="" class=""/><path d="m290.395 140.395-34.395 34.394-15 15-19.395-19.394-21.21 21.21 40.605 40.606 15-15 55.605-55.606z" fill="#615ce6" data-original="#edf3f9" style="" class=""/><path d="m290.395 140.395-34.395 34.394v42.422l55.605-55.606z" fill="#615ce6" data-original="#d8e2f0" style="" class=""/></g></g></g></svg>
