<?xml version="1.0"?>
<svg xmlns="http://www.w3.org/2000/svg" xmlns:xlink="http://www.w3.org/1999/xlink" xmlns:svgjs="http://svgjs.com/svgjs" version="1.1" width="512" height="512" x="0" y="0" viewBox="0 0 24 24" style="enable-background:new 0 0 512 512" xml:space="preserve" className=""><g><path xmlns="http://www.w3.org/2000/svg" d="m17.5 9c1.653 0 3.193.482 4.5 1.302v-7.702l-10.16 5.03c-.52.26-1.16.26-1.68 0l-10.16-5.03v9.15c0 1.24 1.01 2.25 2.25 2.25h7.513c1.338-2.944 4.298-5 7.737-5z" fill="#1c16b3" data-original="#eceff1" style="" className=""/><path xmlns="http://www.w3.org/2000/svg" d="m22 2.25v.6l-10.16 5.03c-.52.26-1.16.26-1.68 0l-10.16-5.03v-.6c0-1.24 1.01-2.25 2.25-2.25h17.5c1.24 0 2.25 1.01 2.25 2.25z" fill="#283ee1" data-original="#b0bec5" style="" className=""/><path xmlns="http://www.w3.org/2000/svg" d="m0 2.6v9.15c0 1.24 1.01 2.25 2.25 2.25h7.513c.323-.711.741-1.37 1.237-1.961v-3.964c-.29 0-.58-.065-.84-.195l-10.16-5.03z" fill="#283ee1" data-original="#cdd0d2" style="" className=""/><path xmlns="http://www.w3.org/2000/svg" d="m11 0h-8.75c-1.24 0-2.25 1.01-2.25 2.25v.35.25l10.16 5.03c.26.13.55.195.84.195z" fill="#4d5edd" data-original="#99a5ac" style="" className=""/><path xmlns="http://www.w3.org/2000/svg" d="m17.5 11c-3.584 0-6.5 2.916-6.5 6.5s2.916 6.5 6.5 6.5 6.5-2.916 6.5-6.5-2.916-6.5-6.5-6.5z" fill="#ffc107" data-original="#ffc107" style="" className=""/><path xmlns="http://www.w3.org/2000/svg" d="m20.25 18.25h-2.75c-.414 0-.75-.336-.75-.75v-2.75c0-.414.336-.75.75-.75s.75.336.75.75v2h2c.414 0 .75.336.75.75s-.336.75-.75.75z" fill="#fafafa" data-original="#fafafa" style="" className=""/><path xmlns="http://www.w3.org/2000/svg" d="m17.5 11c-3.584 0-6.5 2.916-6.5 6.5s2.916 6.5 6.5 6.5v-5.75c-.414 0-.75-.336-.75-.75v-2.75c0-.414.336-.75.75-.75z" fill="#dea806" data-original="#dea806" style="" className=""/><path xmlns="http://www.w3.org/2000/svg" d="m17.5 14c-.414 0-.75.336-.75.75v2.75c0 .414.336.75.75.75z" fill="#dadada" data-original="#dadada" style="" className=""/></g></svg>
