<?xml version="1.0"?>
<svg xmlns="http://www.w3.org/2000/svg" xmlns:xlink="http://www.w3.org/1999/xlink" xmlns:svgjs="http://svgjs.com/svgjs" version="1.1" width="512" height="512" x="0" y="0" viewBox="0 0 24 24" style="enable-background:new 0 0 512 512" xml:space="preserve" className=""><g><path xmlns="http://www.w3.org/2000/svg" d="m9.5 17.5c0-4.242 3.322-7.714 7.5-7.975v-6.775c0-1.517-1.233-2.75-2.75-2.75h-11.5c-1.517 0-2.75 1.233-2.75 2.75v15.5c0 1.517 1.233 2.75 2.75 2.75h7.567c-.518-1.059-.817-2.244-.817-3.5z" fill="#2152c7" data-original="#eceff1" style="" className=""/><circle xmlns="http://www.w3.org/2000/svg" cx="8.5" cy="5" fill="#f7fcff" r="2" data-original="#90a4ae" style="" className=""/><path xmlns="http://www.w3.org/2000/svg" d="m17.5 11c-3.584 0-6.5 2.916-6.5 6.5s2.916 6.5 6.5 6.5 6.5-2.916 6.5-6.5-2.916-6.5-6.5-6.5zm0 1.5c1.108 0 2.123.374 2.953.987l-6.967 6.966c-.612-.83-.986-1.845-.986-2.953 0-2.757 2.243-5 5-5zm0 10c-1.108 0-2.123-.374-2.953-.987l6.967-6.966c.612.83.986 1.845.986 2.953 0 2.757-2.243 5-5 5z" fill="#ffdf40" data-original="#f44336" style="" className=""/><path xmlns="http://www.w3.org/2000/svg" d="m9 15h-4c-.553 0-1-.448-1-1s.447-1 1-1h4c.553 0 1 .448 1 1s-.447 1-1 1z" fill="#f7fcff" data-original="#90a4ae" style="" className=""/><path xmlns="http://www.w3.org/2000/svg" d="m8 18h-3c-.553 0-1-.448-1-1s.447-1 1-1h3c.553 0 1 .448 1 1s-.447 1-1 1z" fill="#f7fcff" data-original="#90a4ae" style="" className=""/><path xmlns="http://www.w3.org/2000/svg" d="m12.496 11.268c0-.006.004-.011.004-.018v-.5c0-1.517-1.233-2.75-2.75-2.75h-2.5c-1.517 0-2.75 1.233-2.75 2.75v.5c0 .414.336.75.75.75h6.456c.247-.261.51-.507.79-.732z" fill="#f7fcff" data-original="#90a4ae" style="" className=""/><path xmlns="http://www.w3.org/2000/svg" d="m22.181 12.995c-.024-.033-.051-.065-.08-.095l-.006.006c-3.065 3.065-6.124 6.124-9.188 9.188l-.007.006c.03.03.061.056.095.08 1.169 1.127 2.757 1.82 4.505 1.82 3.584 0 6.5-2.916 6.5-6.5 0-1.747-.693-3.336-1.819-4.505zm-4.681 9.505c-1.109 0-2.134-.363-2.964-.976l6.989-6.988c.613.83.975 1.855.975 2.964 0 2.757-2.243 5-5 5z" fill="#f7d427" data-original="#d43a2f" style="" className=""/><path xmlns="http://www.w3.org/2000/svg" d="m8.5 0h-5.75c-1.517 0-2.75 1.233-2.75 2.75v15.5c0 1.517 1.233 2.75 2.75 2.75h5.75v-3h-3.5c-.552 0-1-.448-1-1s.448-1 1-1h3.5v-1h-3.5c-.552 0-1-.448-1-1s.448-1 1-1h3.5v-1h-3.25c-.414 0-.75-.336-.75-.75v-.5c0-1.517 1.233-2.75 2.75-2.75h1.25v-1c-1.103 0-2-.897-2-2s.897-2 2-2z" fill="#013bed" data-original="#cdd0d2" style="" className=""/><g xmlns="http://www.w3.org/2000/svg" fill="#7d8f97"><path d="m8.5 3c-1.103 0-2 .897-2 2s.897 2 2 2z" fill="#ffffff" data-original="#7d8f97" style="" className=""/><path d="m8.5 8h-1.25c-1.517 0-2.75 1.233-2.75 2.75v.5c0 .414.336.75.75.75h3.25z" fill="#ffffff" data-original="#7d8f97" style="" className=""/><path d="m8.5 13h-3.5c-.552 0-1 .448-1 1s.448 1 1 1h3.5z" fill="#ffffff" data-original="#7d8f97" style="" className=""/><path d="m8.5 16h-3.5c-.552 0-1 .448-1 1s.448 1 1 1h3.5z" fill="#ffffff" data-original="#7d8f97" style="" className=""/></g></g></svg>
